<?xml version="1.0" encoding="UTF-8" standalone="no" ?>
<!DOCTYPE svg PUBLIC "-//W3C//DTD SVG 1.1//EN" "http://www.w3.org/Graphics/SVG/1.1/DTD/svg11.dtd">
<svg xmlns="http://www.w3.org/2000/svg" xmlns:xlink="http://www.w3.org/1999/xlink" version="1.1" width="1080" height="1080" viewBox="0 0 1080 1080" xml:space="preserve">
<desc>Created with Fabric.js 5.2.4</desc>
<defs>
</defs>
<g transform="matrix(1 0 0 1 540 540)" id="12ec1f7d-b0d3-4f25-9bc7-1c1bc5289c46"  >
<rect style="stroke: none; stroke-width: 1; stroke-dasharray: none; stroke-linecap: butt; stroke-dashoffset: 0; stroke-linejoin: miter; stroke-miterlimit: 4; fill: rgb(255,255,255); fill-rule: nonzero; opacity: 1; visibility: hidden;" vector-effect="non-scaling-stroke"  x="-540" y="-540" rx="0" ry="0" width="1080" height="1080" />
</g>
<g transform="matrix(1 0 0 1 540 540)" id="73bdb9f3-6a39-499f-b2b4-8f68ace0a1ca"  >
</g>
<g transform="matrix(1 0 0 1 540 540)"  >
<g style="" vector-effect="non-scaling-stroke"   >
		<g transform="matrix(0.13 0 0 -0.13 0 0)"  >
<path style="stroke: none; stroke-width: 1; stroke-dasharray: none; stroke-linecap: butt; stroke-dashoffset: 0; stroke-linejoin: miter; stroke-miterlimit: 4; fill: rgb(10,187,171); fill-rule: nonzero; opacity: 1;" vector-effect="non-scaling-stroke"  transform=" translate(-2467.5, -2477.28)" d="M 2040 4029 C 1878 3998 1748 3892 1671 3730 C 1654 3694 1640 3660 1640 3653 C 1640 3647 1623 3636 1603 3630 C 1441 3578 1312 3439 1268 3268 C 1258 3225 1250 3215 1216 3198 C 1157 3168 1086 3091 1052 3019 C 991 2892 990 2745 1047 2618 L 1072 2561 L 1031 2514 C 1008 2488 975 2437 957 2401 C 926 2338 925 2330 925 2215 C 925 2105 928 2088 954 2022 C 991 1930 1077 1833 1154 1795 C 1208 1769 1208 1768 1219 1707 C 1255 1500 1427 1326 1648 1270 C 1671 1264 1690 1254 1690 1248 C 1690 1242 1707 1210 1727 1176 C 1864 949 2147 856 2396 956 C 2432 970 2469 980 2478 977 C 2487 974 2529 959 2570 945 C 2749 880 2970 928 3108 1061 C 3164 1115 3193 1154 3224 1217 C 3248 1263 3254 1269 3291 1275 C 3367 1288 3490 1358 3561 1429 C 3634 1502 3694 1611 3705 1690 C 3716 1771 3718 1775 3752 1788 C 3800 1805 3894 1882 3929 1933 C 3977 2003 4010 2115 4010 2207 C 4010 2334 3971 2436 3889 2525 L 3850 2567 L 3871 2606 C 3909 2681 3922 2747 3918 2844 C 3915 2920 3909 2946 3883 3002 C 3846 3080 3785 3150 3713 3196 C 3669 3225 3661 3235 3655 3269 C 3651 3291 3633 3341 3614 3381 C 3558 3498 3471 3572 3318 3634 C 3294 3643 3280 3656 3280 3667 C 3280 3696 3232 3791 3192 3840 C 3135 3911 3090 3947 3018 3984 C 2849 4070 2659 4048 2516 3926 L 2465 3883 L 2420 3923 C 2366 3971 2274 4016 2201 4030 C 2139 4042 2103 4041 2040 4029 z M 2213 3864 C 2265 3847 2338 3786 2369 3736 C 2388 3706 2390 3687 2390 3552 L 2390 3402 L 2338 3389 C 2309 3383 2270 3371 2252 3363 L 2219 3349 L 2222 3412 C 2225 3466 2228 3475 2245 3478 C 2309 3490 2333 3578 2285 3625 C 2259 3652 2213 3658 2179 3640 C 2157 3628 2130 3579 2130 3550 C 2130 3539 2126 3530 2121 3530 C 2104 3530 2093 3474 2091 3371 L 2089 3266 L 2043 3216 C 1942 3103 1896 2982 1896 2825 C 1895 2749 1901 2708 1917 2654 C 1945 2566 2021 2448 2086 2392 C 2150 2337 2253 2283 2326 2267 L 2385 2253 L 2390 1936 L 2395 1618 L 2419 1599 C 2450 1574 2473 1575 2504 1603 L 2530 1625 L 2531 1930 C 2531 2098 2534 2240 2538 2246 C 2542 2252 2565 2260 2589 2264 C 2731 2286 2904 2424 2972 2570 C 3041 2716 3052 2856 3005 2995 C 2977 3078 2912 3187 2861 3234 L 2830 3264 L 2830 3385 C 2830 3494 2828 3509 2810 3525 C 2799 3535 2790 3552 2790 3562 C 2790 3612 2751 3649 2698 3650 C 2670 3650 2656 3643 2636 3619 C 2622 3602 2610 3580 2610 3569 C 2610 3531 2639 3491 2673 3482 C 2703 3474 2705 3471 2708 3426 C 2713 3349 2712 3349 2618 3380 L 2535 3408 L 2532 3541 C 2530 3666 2531 3676 2555 3726 C 2618 3854 2775 3912 2915 3859 C 2996 3829 3069 3758 3115 3666 C 3171 3554 3201 3509 3224 3500 C 3235 3495 3267 3483 3294 3474 C 3361 3450 3451 3365 3480 3298 C 3492 3269 3505 3220 3508 3188 L 3513 3130 L 3582 3093 C 3642 3062 3710 3001 3710 2978 C 3710 2973 3607 2970 3480 2970 C 3288 2970 3245 2973 3216 2987 C 3187 3001 3177 3001 3150 2990 C 3057 2951 3092 2806 3190 2826 C 3209 2829 3345 2834 3493 2837 L 3760 2841 L 3760 2792 C 3760 2729 3717 2643 3671 2613 C 3640 2592 3626 2590 3494 2590 L 3352 2590 L 3313 2638 C 3291 2664 3268 2699 3261 2716 C 3229 2797 3110 2789 3094 2704 C 3086 2660 3111 2620 3159 2604 C 3180 2597 3202 2576 3227 2539 C 3298 2432 3273 2440 3525 2440 L 3746 2440 L 3777 2408 C 3834 2348 3845 2315 3845 2210 C 3845 2126 3842 2109 3818 2065 C 3792 2015 3736 1950 3719 1950 C 3714 1950 3710 1961 3710 1975 C 3710 2053 3643 2095 3589 2051 C 3566 2033 3565 2025 3560 1873 C 3555 1729 3552 1710 3528 1657 C 3472 1538 3339 1439 3214 1424 C 3123 1414 3121 1413 3114 1372 C 3096 1272 3006 1160 2906 1114 C 2770 1052 2644 1063 2499 1150 L 2463 1172 L 2414 1142 C 2335 1094 2274 1077 2183 1077 C 2114 1077 2092 1082 2037 1107 C 1927 1159 1845 1252 1820 1352 C 1813 1378 1803 1403 1796 1408 C 1790 1413 1756 1420 1720 1424 C 1590 1437 1466 1524 1405 1647 C 1377 1702 1376 1714 1370 1868 C 1365 2025 1364 2033 1341 2051 C 1290 2092 1220 2054 1220 1985 C 1220 1966 1215 1950 1210 1950 C 1204 1950 1182 1968 1160 1991 C 1056 2098 1048 2301 1145 2397 L 1187 2440 L 1394 2440 C 1522 2440 1609 2444 1621 2451 C 1632 2457 1661 2493 1686 2531 C 1717 2579 1737 2600 1751 2600 C 1778 2600 1830 2653 1830 2680 C 1830 2709 1804 2756 1785 2764 C 1756 2775 1705 2770 1684 2755 C 1672 2747 1657 2726 1649 2708 C 1642 2690 1621 2656 1602 2633 L 1568 2590 L 1416 2590 L 1264 2590 L 1233 2623 C 1189 2669 1169 2715 1163 2781 L 1157 2839 L 1416 2842 C 1607 2844 1682 2842 1700 2833 C 1740 2813 1769 2818 1801 2849 C 1872 2921 1791 3032 1701 2986 C 1676 2973 1633 2970 1463 2971 C 1349 2972 1245 2975 1232 2978 C 1210 2985 1210 2986 1251 3028 C 1274 3051 1318 3082 1349 3097 C 1416 3129 1420 3134 1420 3183 C 1420 3314 1527 3445 1665 3486 C 1707 3498 1723 3509 1753 3550 C 1774 3578 1795 3612 1802 3628 C 1855 3762 1929 3837 2040 3871 C 2083 3884 2164 3881 2213 3864 z M 2590 3211 C 2595 3200 2600 3139 2600 3076 L 2600 2960 L 2719 2960 C 2808 2960 2840 2957 2849 2946 C 2857 2937 2860 2894 2858 2819 L 2855 2705 L 2729 2702 L 2602 2699 L 2597 2667 C 2595 2650 2595 2597 2598 2549 C 2605 2421 2604 2420 2466 2420 C 2384 2420 2349 2424 2342 2433 C 2335 2441 2329 2500 2328 2571 L 2325 2695 L 2206 2698 C 2139 2699 2080 2705 2073 2712 C 2056 2726 2055 2931 2072 2948 C 2080 2956 2125 2960 2207 2960 L 2330 2960 L 2330 3083 C 2330 3165 2334 3210 2342 3218 C 2350 3226 2392 3230 2467 3230 C 2568 3230 2580 3228 2590 3211 z" stroke-linecap="round" />
</g>
		<g transform="matrix(0.13 0 0 -0.13 -96.28 -113.34)"  >
<path style="stroke: none; stroke-width: 1; stroke-dasharray: none; stroke-linecap: butt; stroke-dashoffset: 0; stroke-linejoin: miter; stroke-miterlimit: 4; fill: rgb(10,187,171); fill-rule: nonzero; opacity: 1;" vector-effect="non-scaling-stroke"  transform=" translate(-1745.38, -3327.36)" d="M 1838 3532 C 1791 3504 1780 3420 1819 3395 C 1825 3392 1830 3357 1830 3319 L 1830 3249 L 1743 3254 C 1694 3256 1636 3262 1613 3265 C 1577 3271 1568 3269 1546 3246 C 1481 3182 1554 3076 1637 3112 C 1652 3119 1728 3127 1805 3130 L 1945 3135 L 1948 3265 C 1949 3336 1955 3399 1960 3404 C 1973 3417 1973 3476 1960 3501 C 1949 3521 1900 3550 1878 3550 C 1871 3550 1853 3542 1838 3532 z" stroke-linecap="round" />
</g>
		<g transform="matrix(0.13 0 0 -0.13 94.95 -113.16)"  >
<path style="stroke: none; stroke-width: 1; stroke-dasharray: none; stroke-linecap: butt; stroke-dashoffset: 0; stroke-linejoin: miter; stroke-miterlimit: 4; fill: rgb(10,187,171); fill-rule: nonzero; opacity: 1;" vector-effect="non-scaling-stroke"  transform=" translate(-3179.6, -3326)" d="M 2993 3530 C 2952 3505 2940 3453 2964 3403 C 2976 3377 2980 3342 2979 3258 C 2979 3198 2982 3144 2987 3140 C 2991 3135 3056 3130 3130 3128 C 3215 3125 3276 3119 3296 3111 C 3321 3099 3331 3099 3355 3111 C 3414 3139 3425 3205 3379 3251 C 3361 3269 3351 3271 3312 3265 C 3286 3262 3228 3257 3183 3254 L 3100 3249 L 3100 3317 C 3101 3361 3106 3392 3115 3404 C 3132 3427 3134 3473 3120 3501 C 3109 3521 3060 3550 3038 3550 C 3031 3550 3011 3541 2993 3530 z" stroke-linecap="round" />
</g>
		<g transform="matrix(0.13 0 0 -0.13 83.16 18.78)"  >
<path style="stroke: none; stroke-width: 1; stroke-dasharray: none; stroke-linecap: butt; stroke-dashoffset: 0; stroke-linejoin: miter; stroke-miterlimit: 4; fill: rgb(10,187,171); fill-rule: nonzero; opacity: 1;" vector-effect="non-scaling-stroke"  transform=" translate(-3091.23, -2336.44)" d="M 3060 2420 C 3027 2412 2995 2353 3004 2317 C 3021 2248 3099 2228 3151 2279 C 3167 2295 3180 2318 3180 2330 C 3180 2348 3154 2410 3147 2410 C 3146 2410 3131 2414 3115 2418 C 3098 2423 3074 2424 3060 2420 z" stroke-linecap="round" />
</g>
		<g transform="matrix(0.13 0 0 -0.13 -84.73 19.04)"  >
<path style="stroke: none; stroke-width: 1; stroke-dasharray: none; stroke-linecap: butt; stroke-dashoffset: 0; stroke-linejoin: miter; stroke-miterlimit: 4; fill: rgb(10,187,171); fill-rule: nonzero; opacity: 1;" vector-effect="non-scaling-stroke"  transform=" translate(-1832.04, -2334.51)" d="M 1782 2413 C 1775 2410 1763 2395 1754 2378 C 1708 2290 1823 2206 1894 2276 C 1950 2332 1912 2421 1833 2419 C 1812 2419 1789 2416 1782 2413 z" stroke-linecap="round" />
</g>
		<g transform="matrix(0.13 0 0 -0.13 -127.32 66.46)"  >
<path style="stroke: none; stroke-width: 1; stroke-dasharray: none; stroke-linecap: butt; stroke-dashoffset: 0; stroke-linejoin: miter; stroke-miterlimit: 4; fill: rgb(10,187,171); fill-rule: nonzero; opacity: 1;" vector-effect="non-scaling-stroke"  transform=" translate(-1512.6, -1978.81)" d="M 1276 2318 C 1224 2273 1249 2180 1316 2167 C 1330 2165 1357 2171 1376 2180 C 1401 2193 1431 2198 1483 2197 L 1555 2195 L 1560 2053 L 1565 1911 L 1598 1878 C 1635 1839 1638 1813 1610 1754 C 1591 1715 1590 1709 1604 1677 C 1630 1613 1692 1601 1742 1650 C 1768 1677 1771 1685 1766 1718 C 1756 1776 1756 1793 1770 1826 C 1789 1870 1769 1914 1719 1943 L 1680 1965 L 1680 2091 C 1680 2204 1682 2219 1700 2235 C 1722 2255 1727 2295 1708 2307 C 1701 2311 1625 2318 1540 2322 C 1455 2325 1367 2331 1344 2335 C 1310 2341 1299 2338 1276 2318 z" stroke-linecap="round" />
</g>
		<g transform="matrix(0.13 0 0 -0.13 125.78 66.24)"  >
<path style="stroke: none; stroke-width: 1; stroke-dasharray: none; stroke-linecap: butt; stroke-dashoffset: 0; stroke-linejoin: miter; stroke-miterlimit: 4; fill: rgb(10,187,171); fill-rule: nonzero; opacity: 1;" vector-effect="non-scaling-stroke"  transform=" translate(-3410.83, -1980.5)" d="M 3545 2330 C 3541 2324 3478 2320 3389 2320 C 3254 2320 3238 2318 3220 2300 C 3198 2278 3202 2256 3232 2227 C 3249 2210 3251 2195 3248 2088 L 3245 1968 L 3204 1939 C 3181 1923 3160 1903 3156 1895 C 3145 1866 3150 1825 3166 1801 C 3179 1783 3180 1773 3171 1754 C 3148 1702 3159 1656 3201 1635 C 3243 1613 3268 1617 3301 1649 C 3333 1682 3338 1719 3315 1760 C 3289 1806 3296 1852 3335 1890 L 3370 1924 L 3370 2057 C 3370 2156 3373 2190 3383 2191 C 3499 2197 3514 2196 3548 2179 C 3588 2158 3613 2162 3648 2193 C 3681 2224 3679 2291 3644 2319 C 3616 2341 3556 2347 3545 2330 z" stroke-linecap="round" />
</g>
		<g transform="matrix(0.13 0 0 -0.13 -66.28 70.37)"  >
<path style="stroke: none; stroke-width: 1; stroke-dasharray: none; stroke-linecap: butt; stroke-dashoffset: 0; stroke-linejoin: miter; stroke-miterlimit: 4; fill: rgb(10,187,171); fill-rule: nonzero; opacity: 1;" vector-effect="non-scaling-stroke"  transform=" translate(-1970.44, -1949.5)" d="M 1908 2054 C 1805 1999 1850 1832 1968 1830 C 2087 1829 2136 1986 2038 2054 C 2010 2074 1944 2074 1908 2054 z" stroke-linecap="round" />
</g>
		<g transform="matrix(0.13 0 0 -0.13 65.21 70.31)"  >
<path style="stroke: none; stroke-width: 1; stroke-dasharray: none; stroke-linecap: butt; stroke-dashoffset: 0; stroke-linejoin: miter; stroke-miterlimit: 4; fill: rgb(10,187,171); fill-rule: nonzero; opacity: 1;" vector-effect="non-scaling-stroke"  transform=" translate(-2956.59, -1949.95)" d="M 2881 2045 C 2819 1992 2819 1908 2881 1855 C 2915 1827 2978 1821 3018 1844 C 3074 1874 3095 1951 3065 2010 C 3033 2072 2936 2090 2881 2045 z" stroke-linecap="round" />
</g>
		<g transform="matrix(0.13 0 0 -0.13 -0.95 137.11)"  >
<path style="stroke: none; stroke-width: 1; stroke-dasharray: none; stroke-linecap: butt; stroke-dashoffset: 0; stroke-linejoin: miter; stroke-miterlimit: 4; fill: rgb(10,187,171); fill-rule: nonzero; opacity: 1;" vector-effect="non-scaling-stroke"  transform=" translate(-2460.36, -1448.92)" d="M 2140 1577 C 2083 1548 2089 1502 2160 1431 C 2307 1284 2565 1271 2731 1401 C 2822 1474 2846 1550 2787 1578 C 2756 1593 2760 1595 2666 1521 C 2598 1467 2526 1446 2436 1453 C 2347 1460 2301 1479 2241 1534 C 2186 1585 2170 1592 2140 1577 z" stroke-linecap="round" />
</g>
</g>
</g>
</svg>